<svg width="32" height="32" viewBox="0 0 32 32" fill="none" xmlns="http://www.w3.org/2000/svg">
    <path d="M26.749 24.9301C28.1851 23.2022 29.184 21.1538 29.661 18.9582C30.1381 16.7627 30.0793 14.4845 29.4897 12.3165C28.9001 10.1484 27.7969 8.15429 26.2736 6.50274C24.7504 4.85118 22.8517 3.59081 20.7383 2.82824C18.6248 2.06567 16.3588 1.82334 14.132 2.12174C11.9051 2.42014 9.78281 3.2505 7.94471 4.54256C6.10661 5.83463 4.60674 7.5504 3.57199 9.54473C2.53723 11.5391 1.99803 13.7533 2 16.0001C2.00075 19.2662 3.15174 22.4278 5.251 24.9301L5.231 24.9471C5.301 25.0311 5.381 25.1031 5.453 25.1861C5.543 25.2891 5.64 25.3861 5.733 25.4861C6.013 25.7901 6.301 26.0821 6.603 26.3561C6.695 26.4401 6.79 26.5181 6.883 26.5981C7.203 26.8741 7.532 27.1361 7.873 27.3801C7.917 27.4101 7.957 27.4491 8.001 27.4801V27.4681C10.3431 29.1162 13.1371 30.0008 16.001 30.0008C18.8649 30.0008 21.6589 29.1162 24.001 27.4681V27.4801C24.045 27.4491 24.084 27.4101 24.129 27.3801C24.469 27.1351 24.799 26.8741 25.119 26.5981C25.212 26.5181 25.307 26.4391 25.399 26.3561C25.701 26.0811 25.989 25.7901 26.269 25.4861C26.362 25.3861 26.458 25.2891 26.549 25.1861C26.62 25.1031 26.701 25.0311 26.771 24.9461L26.749 24.9301ZM16 8.00006C16.89 8.00006 17.76 8.26398 18.5001 8.75845C19.2401 9.25291 19.8169 9.95572 20.1575 10.778C20.4981 11.6003 20.5872 12.5051 20.4135 13.378C20.2399 14.2509 19.8113 15.0527 19.182 15.682C18.5526 16.3114 17.7508 16.74 16.8779 16.9136C16.005 17.0872 15.1002 16.9981 14.2779 16.6575C13.4557 16.3169 12.7529 15.7401 12.2584 15.0001C11.7639 14.2601 11.5 13.3901 11.5 12.5001C11.5 11.3066 11.9741 10.162 12.818 9.31808C13.6619 8.47417 14.8065 8.00006 16 8.00006V8.00006ZM8.007 24.9301C8.02435 23.617 8.55795 22.3636 9.49236 21.441C10.4268 20.5184 11.6869 20.0007 13 20.0001H19C20.3131 20.0007 21.5732 20.5184 22.5076 21.441C23.4421 22.3636 23.9757 23.617 23.993 24.9301C21.7998 26.9064 18.9523 28.0001 16 28.0001C13.0477 28.0001 10.2002 26.9064 8.007 24.9301V24.9301Z" fill="#ffffff"/>
</svg>
